<?xml version="1.0" encoding="UTF-8" standalone="no"?>
<svg
   xmlns:dc="http://purl.org/dc/elements/1.1/"
   xmlns:cc="http://creativecommons.org/ns#"
   xmlns:rdf="http://www.w3.org/1999/02/22-rdf-syntax-ns#"
   xmlns:svg="http://www.w3.org/2000/svg"
   xmlns="http://www.w3.org/2000/svg"
   xmlns:sodipodi="http://sodipodi.sourceforge.net/DTD/sodipodi-0.dtd"
   xmlns:inkscape="http://www.inkscape.org/namespaces/inkscape"
   sodipodi:docname="SlateFrame4mm.svg"
   inkscape:version="1.0beta2 (2b71d25, 2019-12-03)"
   id="svg8"
   version="1.1"
   viewBox="0 0 500 600"
   height="600mm"
   width="500mm">
  <defs
     id="defs2" />
  <sodipodi:namedview
     inkscape:window-maximized="0"
     inkscape:window-y="26"
     inkscape:window-x="1"
     inkscape:window-height="741"
     inkscape:window-width="1440"
     inkscape:guide-bbox="true"
     showguides="true"
     showgrid="false"
     inkscape:document-rotation="0"
     inkscape:current-layer="layer1"
     inkscape:document-units="mm"
     inkscape:cy="1152.7784"
     inkscape:cx="1025.8466"
     inkscape:zoom="0.19021073"
     inkscape:pageshadow="2"
     inkscape:pageopacity="0.0"
     borderopacity="1.0"
     bordercolor="#666666"
     pagecolor="#ffffff"
     id="base" />
  <metadata
     id="metadata5">
    <rdf:RDF>
      <cc:Work
         rdf:about="">
        <dc:format>image/svg+xml</dc:format>
        <dc:type
           rdf:resource="http://purl.org/dc/dcmitype/StillImage" />
        <dc:title></dc:title>
      </cc:Work>
    </rdf:RDF>
  </metadata>
  <g
     id="layer1"
     inkscape:groupmode="layer"
     inkscape:label="Layer 1">
    <path
       inkscape:connector-curvature="0"
       d="m 139.47183,165.93565 c 0,-0.74893 -0.86488,-1.35186 -1.93941,-1.35186 h -34.21704 c -1.07452,0 -1.93993,0.60293 -1.93993,1.35186 v 29.09693 c 0,0.18943 0.0555,0.36943 0.15555,0.53279 -0.11086,0.249 -0.17364,0.52436 -0.17364,0.81545 v 300.80023 c 0,0.18891 0.0275,0.37065 0.076,0.54364 -0.068,0.13816 -0.10645,0.28617 -0.10645,0.44079 v 29.09695 c 0,0.74893 0.8654,1.35186 1.93993,1.35186 h 34.21703 c 1.07453,0 1.93942,-0.60293 1.93942,-1.35186 v -29.09695 c 0,-0.12218 -0.025,-0.23997 -0.0682,-0.35242 0.0658,-0.1987 0.10232,-0.41066 0.10232,-0.63201 V 196.38082 c 0,-0.28022 -0.057,-0.54643 -0.16019,-0.78806 0.11121,-0.17068 0.17466,-0.35988 0.17466,-0.56018 z m -9.49089,45.49541 v 3.99976 h -19.05 v -3.99976 z m 0,9.07904 v 4.00027 h -19.05 v -4.00027 z m 0,9.07903 v 4.00027 h -19.05 v -4.00027 z m 0,9.07955 v 3.99975 h -19.05 v -3.99975 z m 0,9.07903 v 3.99976 h -19.05 v -3.99976 z m 0,9.07903 v 4.00027 h -19.05 v -4.00027 z m 0,9.07955 v 3.99976 h -19.05 v -3.99976 z m -0.2558,157.74954 v 3.99976 h -19.05 v -3.99976 z m 0,9.07904 v 4.00026 h -19.05 v -4.00026 z m 0,9.07955 v 3.99976 h -19.05 v -3.99976 z m 0,9.07902 v 3.99976 h -19.05 v -3.99976 z m 0,9.07904 v 4.00027 h -19.05 v -4.00027 z m 0,9.07902 v 4.00029 h -19.05 v -4.00029 z m 0,9.07955 v 3.99976 h -19.05 v -3.99976 z"
       style="opacity:0.5;fill:none;fill-opacity:1;fill-rule:evenodd;stroke:#ff0000;stroke-width:0.352778;stroke-linecap:round;stroke-linejoin:round;stroke-miterlimit:4;stroke-dasharray:none;stroke-opacity:1"
       id="rect833" />
    <path
       inkscape:connector-curvature="0"
       d="m 63.554845,20.614308 c -1.108001,0 -1.999877,0.99098 -1.999877,2.222086 V 526.39221 c 0,1.23111 0.891876,2.22208 1.999877,2.22208 h 34.100243 c 1.108001,0 1.99988,-0.99097 1.99988,-2.22208 V 22.836394 c 0,-1.231106 -0.891879,-2.222086 -1.99988,-2.222086 z m 15.614034,34.924999 h 3.799768 V 74.589306 H 79.168879 Z M 78.704826,474.43207 h 3.800284 v 19.05 h -3.800284 z"
       style="opacity:0.5;fill:none;fill-opacity:1;fill-rule:evenodd;stroke:#ff0000;stroke-width:0.352778;stroke-linecap:round;stroke-linejoin:round;stroke-miterlimit:4;stroke-dasharray:none;stroke-opacity:1"
       id="rect835" />
    <rect
       style="opacity:0.5;fill:none;fill-opacity:1;fill-rule:evenodd;stroke:#ff0000;stroke-width:0.352778;stroke-linecap:round;stroke-linejoin:round;stroke-miterlimit:4;stroke-dasharray:none;stroke-opacity:1"
       id="rect974"
       width="14"
       height="19.049999"
       x="123.24683"
       y="138.50945" />
    <path
       inkscape:connector-curvature="0"
       id="path986"
       style="opacity:0.5;fill:none;fill-opacity:1;fill-rule:evenodd;stroke:#ff0000;stroke-width:0.352778;stroke-linecap:round;stroke-linejoin:round;stroke-miterlimit:4;stroke-dasharray:none;stroke-opacity:1"
       d="m 23.782897,20.61431 c -1.108001,0 -1.999877,0.99098 -1.999877,2.222086 V 526.39221 c 0,1.23111 0.891876,2.22208 1.999877,2.22208 H 57.88314 c 1.108001,0 1.99988,-0.99097 1.99988,-2.22208 V 22.836396 c 0,-1.231106 -0.891879,-2.222086 -1.99988,-2.222086 z m 15.614034,34.924998 h 3.799768 v 19.05 H 39.396931 Z M 38.932878,474.43207 h 3.800284 v 19.05 h -3.800284 z" />
    <path
       id="path988"
       style="opacity:0.5;fill:none;fill-opacity:1;fill-rule:evenodd;stroke:#ff0000;stroke-width:0.352778;stroke-linecap:round;stroke-linejoin:round;stroke-miterlimit:4;stroke-dasharray:none;stroke-opacity:1"
       d="m 179.28876,165.93565 c 0,-0.74893 -0.86488,-1.35186 -1.93941,-1.35186 h -34.21704 c -1.07452,0 -1.93993,0.60293 -1.93993,1.35186 v 29.09693 c 0,0.18943 0.0555,0.36943 0.15555,0.53279 -0.11086,0.249 -0.17364,0.52436 -0.17364,0.81545 v 300.80023 c 0,0.18891 0.0275,0.37065 0.076,0.54364 -0.068,0.13816 -0.10645,0.28617 -0.10645,0.44079 v 29.09695 c 0,0.74893 0.8654,1.35186 1.93993,1.35186 h 34.21703 c 1.07453,0 1.93942,-0.60293 1.93942,-1.35186 v -29.09695 c 0,-0.12218 -0.025,-0.23997 -0.0682,-0.35242 0.0658,-0.1987 0.10232,-0.41066 0.10232,-0.63201 V 196.38082 c 0,-0.28022 -0.057,-0.54643 -0.16019,-0.78806 0.11121,-0.17068 0.17466,-0.35988 0.17466,-0.56018 z m -9.49089,45.49541 v 3.99976 h -19.05 v -3.99976 z m 0,9.07904 v 4.00027 h -19.05 v -4.00027 z m 0,9.07903 v 4.00027 h -19.05 v -4.00027 z m 0,9.07955 v 3.99975 h -19.05 v -3.99975 z m 0,9.07903 v 3.99976 h -19.05 v -3.99976 z m 0,9.07903 v 4.00027 h -19.05 v -4.00027 z m 0,9.07955 v 3.99976 h -19.05 v -3.99976 z m -0.2558,157.74954 v 3.99976 h -19.05 v -3.99976 z m 0,9.07904 v 4.00026 h -19.05 v -4.00026 z m 0,9.07955 v 3.99976 h -19.05 v -3.99976 z m 0,9.07902 v 3.99976 h -19.05 v -3.99976 z m 0,9.07904 v 4.00027 h -19.05 v -4.00027 z m 0,9.07902 v 4.00029 h -19.05 v -4.00029 z m 0,9.07955 v 3.99976 h -19.05 v -3.99976 z"
       inkscape:connector-curvature="0" />
    <rect
       y="138.50945"
       x="103.54879"
       height="19.049999"
       width="14"
       id="rect990"
       style="opacity:0.5;fill:none;fill-opacity:1;fill-rule:evenodd;stroke:#ff0000;stroke-width:0.352778;stroke-linecap:round;stroke-linejoin:round;stroke-miterlimit:4;stroke-dasharray:none;stroke-opacity:1" />
    <rect
       y="138.50945"
       x="162.64297"
       height="19.049999"
       width="14"
       id="rect992"
       style="opacity:0.5;fill:none;fill-opacity:1;fill-rule:evenodd;stroke:#ff0000;stroke-width:0.352778;stroke-linecap:round;stroke-linejoin:round;stroke-miterlimit:4;stroke-dasharray:none;stroke-opacity:1" />
    <rect
       style="opacity:0.5;fill:none;fill-opacity:1;fill-rule:evenodd;stroke:#ff0000;stroke-width:0.352778;stroke-linecap:round;stroke-linejoin:round;stroke-miterlimit:4;stroke-dasharray:none;stroke-opacity:1"
       id="rect994"
       width="14"
       height="19.049999"
       x="142.9449"
       y="138.50945" />
  </g>
</svg>
