  0
SECTION
  2
HEADER
  9
$ACADVER
  1
AC1014
  9
$HANDSEED
  5
FFFF
  9
$MEASUREMENT
 70
     1
  0
ENDSEC
  0
SECTION
  2
TABLES
  0
TABLE
  2
VPORT
  5
8
330
0
100
AcDbSymbolTable
 70
     4
  0
VPORT
  5
2E
330
8
100
AcDbSymbolTableRecord
100
AcDbViewportTableRecord
  2
*ACTIVE
 70
     0
 10
0.0
 20
0.0
 11
1.0
 21
1.0
 12
210.0
 22
148.5
 13
0.0
 23
0.0
 14
10.0
 24
10.0
 15
10.0
 25
10.0
 16
0.0
 26
0.0
 36
1.0
 17
0.0
 27
0.0
 37
0.0
 40
341.0
 41
1.24
 42
50.0
 43
0.0
 44
0.0
 50
0.0
 51
0.0
 71
     0
 72
   100
 73
     1
 74
     3
 75
     0
 76
     0
 77
     0
 78
     0
  0
ENDTAB
  0
TABLE
  2
LTYPE
  5
5
330
0
100
AcDbSymbolTable
 70
     1
  0
LTYPE
  5
14
330
5
100
AcDbSymbolTableRecord
100
AcDbLinetypeTableRecord
  2
BYBLOCK
 70
     0
  3

 72
    65
 73
     0
 40
0.0
  0
LTYPE
  5
15
330
5
100
AcDbSymbolTableRecord
100
AcDbLinetypeTableRecord
  2
BYLAYER
 70
     0
  3

 72
    65
 73
     0
 40
0.0
  0
LTYPE
  5
16
330
5
100
AcDbSymbolTableRecord
100
AcDbLinetypeTableRecord
  2
CONTINUOUS
 70
     0
  3
Solid line
 72
    65
 73
     0
 40
0.0
  0
ENDTAB
  0
TABLE
  2
LAYER
  5
2
100
AcDbSymbolTable
 70
2
  0
LAYER
  5
50
100
AcDbSymbolTableRecord
100
AcDbLayerTableRecord
  2
0
 70
0
  6
CONTINUOUS
  0
LAYER
  5
51
100
AcDbSymbolTableRecord
100
AcDbLayerTableRecord
  2
Layer_1
 70
0
  6
CONTINUOUS
  0
ENDTAB
  0
TABLE
  2
STYLE
  5
3
330
0
100
AcDbSymbolTable
 70
     1
  0
STYLE
  5
11
330
3
100
AcDbSymbolTableRecord
100
AcDbTextStyleTableRecord
  2
STANDARD
 70
     0
 40
0.0
 41
1.0
 50
0.0
 71
     0
 42
2.5
  3
txt
  4

  0
ENDTAB
  0
TABLE
  2
VIEW
  5
6
330
0
100
AcDbSymbolTable
 70
     0
  0
ENDTAB
  0
TABLE
  2
UCS
  5
7
330
0
100
AcDbSymbolTable
 70
     0
  0
ENDTAB
  0
TABLE
  2
APPID
  5
9
330
0
100
AcDbSymbolTable
 70
     2
  0
APPID
  5
12
330
9
100
AcDbSymbolTableRecord
100
AcDbRegAppTableRecord
  2
ACAD
 70
     0
  0
ENDTAB
  0
TABLE
  2
DIMSTYLE
  5
A
330
0
100
AcDbSymbolTable
 70
     1
  0
DIMSTYLE
105
27
330
A
100
AcDbSymbolTableRecord
100
AcDbDimStyleTableRecord
  2
ISO-25
 70
     0
  3

  4

  5

  6

  7

 40
1.0
 41
2.5
 42
0.625
 43
3.75
 44
1.25
 45
0.0
 46
0.0
 47
0.0
 48
0.0
140
2.5
141
2.5
142
0.0
143
0.03937007874016
144
1.0
145
0.0
146
1.0
147
0.625
 71
     0
 72
     0
 73
     0
 74
     0
 75
     0
 76
     0
 77
     1
 78
     8
170
     0
171
     3
172
     1
173
     0
174
     0
175
     0
176
     0
177
     0
178
     0
270
     2
271
     2
272
     2
273
     2
274
     3
340
11
275
     0
280
     0
281
     0
282
     0
283
     0
284
     8
285
     0
286
     0
287
     3
288
     0
  0
ENDTAB
  0
TABLE
  2
BLOCK_RECORD
  5
1
330
0
100
AcDbSymbolTable
 70
     1
  0
BLOCK_RECORD
  5
1F
330
1
100
AcDbSymbolTableRecord
100
AcDbBlockTableRecord
  2
*MODEL_SPACE
  0
BLOCK_RECORD
  5
1B
330
1
100
AcDbSymbolTableRecord
100
AcDbBlockTableRecord
  2
*PAPER_SPACE
  0
ENDTAB
  0
ENDSEC
  0
SECTION
  2
BLOCKS
  0
BLOCK
  5
20
330
1F
100
AcDbEntity
  8
0
100
AcDbBlockBegin
  2
*MODEL_SPACE
 70
     0
 10
0.0
 20
0.0
 30
0.0
  3
*MODEL_SPACE
  1

  0
ENDBLK
  5
21
330
1F
100
AcDbEntity
  8
0
100
AcDbBlockEnd
  0
BLOCK
  5
1C
330
1B
100
AcDbEntity
 67
     1
  8
0
100
AcDbBlockBegin
  2
*PAPER_SPACE
  1

  0
ENDBLK
  5
1D
330
1B
100
AcDbEntity
 67
     1
  8
0
100
AcDbBlockEnd
  0
ENDSEC
  0
SECTION
  2
ENTITIES
  0
SPLINE
  5
100
100
AcDbEntity
  8
Layer_1
 62
1
100
AcDbSpline
 70
8
 71
3
 72
8
 73
4
 74
0
 40
0
 40
0
 40
0
 40
0
 40
1
 40
1
 40
1
 40
1
 10
30.751601
 20
-7.418031
 30
0.0
 10
30.751601
 20
-7.252902
 30
0.0
 10
30.560907
 20
-7.119965
 30
0.0
 10
30.323988
 20
-7.119965
 30
0.0
  0
SPLINE
  5
101
100
AcDbEntity
  8
Layer_1
 62
1
100
AcDbSpline
 70
8
 71
3
 72
8
 73
4
 74
0
 40
0
 40
0
 40
0
 40
0
 40
1
 40
1
 40
1
 40
1
 10
22.779606
 20
-7.119965
 30
0.0
 10
22.542690
 20
-7.119965
 30
0.0
 10
22.351879
 20
-7.252902
 30
0.0
 10
22.351879
 20
-7.418031
 30
0.0
  0
LWPOLYLINE
  5
102
100
AcDbEntity
  8
Layer_1
 62
1
100
AcDbPolyline
 90
2
 70
0
 10
30.323988
 20
-7.119965
 30
0.0
 10
22.779606
 20
-7.119965
 30
0.0
  0
SPLINE
  5
103
100
AcDbEntity
  8
Layer_1
 62
1
100
AcDbSpline
 70
8
 71
3
 72
8
 73
4
 74
0
 40
0
 40
0
 40
0
 40
0
 40
1
 40
1
 40
1
 40
1
 10
22.351879
 20
-13.833500
 30
0.0
 10
22.351879
 20
-13.875267
 30
0.0
 10
22.364116
 20
-13.914954
 30
0.0
 10
22.386175
 20
-13.950973
 30
0.0
  0
SPLINE
  5
104
100
AcDbEntity
  8
Layer_1
 62
1
100
AcDbSpline
 70
8
 71
3
 72
8
 73
4
 74
0
 40
0
 40
0
 40
0
 40
0
 40
1
 40
1
 40
1
 40
1
 10
22.386175
 20
-13.950973
 30
0.0
 10
22.361732
 20
-14.005874
 30
0.0
 10
22.347890
 20
-14.066587
 30
0.0
 10
22.347890
 20
-14.130768
 30
0.0
  0
LWPOLYLINE
  5
105
100
AcDbEntity
  8
Layer_1
 62
1
100
AcDbPolyline
 90
2
 70
0
 10
22.351879
 20
-7.418031
 30
0.0
 10
22.351879
 20
-13.833500
 30
0.0
  0
SPLINE
  5
106
100
AcDbEntity
  8
Layer_1
 62
1
100
AcDbSpline
 70
8
 71
3
 72
8
 73
4
 74
0
 40
0
 40
0
 40
0
 40
0
 40
1
 40
1
 40
1
 40
1
 10
22.347890
 20
-80.453041
 30
0.0
 10
22.347890
 20
-80.494693
 30
0.0
 10
22.353954
 20
-80.534764
 30
0.0
 10
22.364647
 20
-80.572906
 30
0.0
  0
SPLINE
  5
107
100
AcDbEntity
  8
Layer_1
 62
1
100
AcDbSpline
 70
8
 71
3
 72
8
 73
4
 74
0
 40
0
 40
0
 40
0
 40
0
 40
1
 40
1
 40
1
 40
1
 10
22.364647
 20
-80.572906
 30
0.0
 10
22.349654
 20
-80.603369
 30
0.0
 10
22.341176
 20
-80.636003
 30
0.0
 10
22.341176
 20
-80.670094
 30
0.0
  0
LWPOLYLINE
  5
108
100
AcDbEntity
  8
Layer_1
 62
1
100
AcDbPolyline
 90
2
 70
0
 10
22.347890
 20
-14.130768
 30
0.0
 10
22.347890
 20
-80.453041
 30
0.0
  0
SPLINE
  5
109
100
AcDbEntity
  8
Layer_1
 62
1
100
AcDbSpline
 70
8
 71
3
 72
8
 73
4
 74
0
 40
0
 40
0
 40
0
 40
0
 40
1
 40
1
 40
1
 40
1
 10
22.341176
 20
-87.085568
 30
0.0
 10
22.341176
 20
-87.250696
 30
0.0
 10
22.531985
 20
-87.383634
 30
0.0
 10
22.768904
 20
-87.383634
 30
0.0
  0
LWPOLYLINE
  5
10a
100
AcDbEntity
  8
Layer_1
 62
1
100
AcDbPolyline
 90
2
 70
0
 10
22.341176
 20
-80.670094
 30
0.0
 10
22.341176
 20
-87.085568
 30
0.0
  0
SPLINE
  5
10b
100
AcDbEntity
  8
Layer_1
 62
1
100
AcDbSpline
 70
8
 71
3
 72
8
 73
4
 74
0
 40
0
 40
0
 40
0
 40
0
 40
1
 40
1
 40
1
 40
1
 10
30.313284
 20
-87.383634
 30
0.0
 10
30.550203
 20
-87.383634
 30
0.0
 10
30.740899
 20
-87.250696
 30
0.0
 10
30.740899
 20
-87.085568
 30
0.0
  0
LWPOLYLINE
  5
10c
100
AcDbEntity
  8
Layer_1
 62
1
100
AcDbPolyline
 90
2
 70
0
 10
22.768904
 20
-87.383634
 30
0.0
 10
30.313284
 20
-87.383634
 30
0.0
  0
SPLINE
  5
10d
100
AcDbEntity
  8
Layer_1
 62
1
100
AcDbSpline
 70
8
 71
3
 72
8
 73
4
 74
0
 40
0
 40
0
 40
0
 40
0
 40
1
 40
1
 40
1
 40
1
 10
30.740899
 20
-80.670094
 30
0.0
 10
30.740899
 20
-80.643155
 30
0.0
 10
30.735387
 20
-80.617184
 30
0.0
 10
30.725862
 20
-80.592391
 30
0.0
  0
SPLINE
  5
10e
100
AcDbEntity
  8
Layer_1
 62
1
100
AcDbSpline
 70
8
 71
3
 72
8
 73
4
 74
0
 40
0
 40
0
 40
0
 40
0
 40
1
 40
1
 40
1
 40
1
 10
30.725862
 20
-80.592391
 30
0.0
 10
30.740370
 20
-80.548580
 30
0.0
 10
30.748422
 20
-80.501846
 30
0.0
 10
30.748422
 20
-80.453041
 30
0.0
  0
LWPOLYLINE
  5
10f
100
AcDbEntity
  8
Layer_1
 62
1
100
AcDbPolyline
 90
2
 70
0
 10
30.740899
 20
-87.085568
 30
0.0
 10
30.740899
 20
-80.670094
 30
0.0
  0
SPLINE
  5
110
100
AcDbEntity
  8
Layer_1
 62
1
100
AcDbSpline
 70
8
 71
3
 72
8
 73
4
 74
0
 40
0
 40
0
 40
0
 40
0
 40
1
 40
1
 40
1
 40
1
 10
30.748422
 20
-14.130768
 30
0.0
 10
30.748422
 20
-14.068984
 30
0.0
 10
30.735854
 20
-14.010288
 30
0.0
 10
30.713102
 20
-13.957012
 30
0.0
  0
SPLINE
  5
111
100
AcDbEntity
  8
Layer_1
 62
1
100
AcDbSpline
 70
8
 71
3
 72
8
 73
4
 74
0
 40
0
 40
0
 40
0
 40
0
 40
1
 40
1
 40
1
 40
1
 10
30.713102
 20
-13.957012
 30
0.0
 10
30.737623
 20
-13.919379
 30
0.0
 10
30.751612
 20
-13.877663
 30
0.0
 10
30.751612
 20
-13.833500
 30
0.0
  0
LWPOLYLINE
  5
112
100
AcDbEntity
  8
Layer_1
 62
1
100
AcDbPolyline
 90
2
 70
0
 10
30.748422
 20
-80.453041
 30
0.0
 10
30.748422
 20
-14.130768
 30
0.0
  0
LWPOLYLINE
  5
113
100
AcDbEntity
  8
Layer_1
 62
1
100
AcDbPolyline
 90
2
 70
0
 10
30.751612
 20
-13.833500
 30
0.0
 10
30.751601
 20
-7.418031
 30
0.0
  0
LWPOLYLINE
  5
114
100
AcDbEntity
  8
Layer_1
 62
1
100
AcDbPolyline
 90
4
 70
1
 10
28.658992
 20
-17.449137
 30
0.0
 10
28.658992
 20
-18.331029
 30
0.0
 10
24.458732
 20
-18.331029
 30
0.0
 10
24.458732
 20
-17.449137
 30
0.0
  0
LWPOLYLINE
  5
115
100
AcDbEntity
  8
Layer_1
 62
1
100
AcDbPolyline
 90
4
 70
1
 10
28.658992
 20
-19.450939
 30
0.0
 10
28.658992
 20
-20.332943
 30
0.0
 10
24.458732
 20
-20.332943
 30
0.0
 10
24.458732
 20
-19.450939
 30
0.0
  0
LWPOLYLINE
  5
116
100
AcDbEntity
  8
Layer_1
 62
1
100
AcDbPolyline
 90
4
 70
1
 10
28.658992
 20
-21.452739
 30
0.0
 10
28.658992
 20
-22.334743
 30
0.0
 10
24.458732
 20
-22.334743
 30
0.0
 10
24.458732
 20
-21.452739
 30
0.0
  0
LWPOLYLINE
  5
117
100
AcDbEntity
  8
Layer_1
 62
1
100
AcDbPolyline
 90
4
 70
1
 10
28.658992
 20
-23.454654
 30
0.0
 10
28.658992
 20
-24.336543
 30
0.0
 10
24.458732
 20
-24.336543
 30
0.0
 10
24.458732
 20
-23.454654
 30
0.0
  0
LWPOLYLINE
  5
118
100
AcDbEntity
  8
Layer_1
 62
1
100
AcDbPolyline
 90
4
 70
1
 10
28.658992
 20
-25.456454
 30
0.0
 10
28.658992
 20
-26.338346
 30
0.0
 10
24.458732
 20
-26.338346
 30
0.0
 10
24.458732
 20
-25.456454
 30
0.0
  0
LWPOLYLINE
  5
119
100
AcDbEntity
  8
Layer_1
 62
1
100
AcDbPolyline
 90
4
 70
1
 10
28.658992
 20
-27.458254
 30
0.0
 10
28.658992
 20
-28.340258
 30
0.0
 10
24.458732
 20
-28.340258
 30
0.0
 10
24.458732
 20
-27.458254
 30
0.0
  0
LWPOLYLINE
  5
11a
100
AcDbEntity
  8
Layer_1
 62
1
100
AcDbPolyline
 90
4
 70
1
 10
28.658992
 20
-29.460169
 30
0.0
 10
28.658992
 20
-30.342060
 30
0.0
 10
24.458732
 20
-30.342060
 30
0.0
 10
24.458732
 20
-29.460169
 30
0.0
  0
LWPOLYLINE
  5
11b
100
AcDbEntity
  8
Layer_1
 62
1
100
AcDbPolyline
 90
4
 70
1
 10
28.602592
 20
-64.241751
 30
0.0
 10
28.602592
 20
-65.123643
 30
0.0
 10
24.402331
 20
-65.123643
 30
0.0
 10
24.402331
 20
-64.241751
 30
0.0
  0
LWPOLYLINE
  5
11c
100
AcDbEntity
  8
Layer_1
 62
1
100
AcDbPolyline
 90
4
 70
1
 10
28.602592
 20
-66.243554
 30
0.0
 10
28.602592
 20
-67.125555
 30
0.0
 10
24.402331
 20
-67.125555
 30
0.0
 10
24.402331
 20
-66.243554
 30
0.0
  0
LWPOLYLINE
  5
11d
100
AcDbEntity
  8
Layer_1
 62
1
100
AcDbPolyline
 90
4
 70
1
 10
28.602592
 20
-68.245468
 30
0.0
 10
28.602592
 20
-69.127360
 30
0.0
 10
24.402331
 20
-69.127360
 30
0.0
 10
24.402331
 20
-68.245468
 30
0.0
  0
LWPOLYLINE
  5
11e
100
AcDbEntity
  8
Layer_1
 62
1
100
AcDbPolyline
 90
4
 70
1
 10
28.602592
 20
-70.247266
 30
0.0
 10
28.602592
 20
-71.129158
 30
0.0
 10
24.402331
 20
-71.129158
 30
0.0
 10
24.402331
 20
-70.247266
 30
0.0
  0
LWPOLYLINE
  5
11f
100
AcDbEntity
  8
Layer_1
 62
1
100
AcDbPolyline
 90
4
 70
1
 10
28.602592
 20
-72.249068
 30
0.0
 10
28.602592
 20
-73.131072
 30
0.0
 10
24.402331
 20
-73.131072
 30
0.0
 10
24.402331
 20
-72.249068
 30
0.0
  0
LWPOLYLINE
  5
120
100
AcDbEntity
  8
Layer_1
 62
1
100
AcDbPolyline
 90
4
 70
1
 10
28.602592
 20
-74.250866
 30
0.0
 10
28.602592
 20
-75.132874
 30
0.0
 10
24.402331
 20
-75.132874
 30
0.0
 10
24.402331
 20
-74.250866
 30
0.0
  0
SPLINE
  5
121
100
AcDbEntity
  8
Layer_1
 62
1
100
AcDbSpline
 70
8
 71
3
 72
8
 73
4
 74
0
 40
0
 40
0
 40
0
 40
0
 40
1
 40
1
 40
1
 40
1
 10
14.012961
 20
24.623307
 30
0.0
 10
13.768662
 20
24.623307
 30
0.0
 10
13.572016
 20
24.404809
 30
0.0
 10
13.572016
 20
24.133367
 30
0.0
  0
LWPOLYLINE
  5
122
100
AcDbEntity
  8
Layer_1
 62
1
100
AcDbPolyline
 90
4
 70
1
 10
28.602592
 20
-76.252781
 30
0.0
 10
28.602592
 20
-77.134672
 30
0.0
 10
24.402331
 20
-77.134672
 30
0.0
 10
24.402331
 20
-76.252781
 30
0.0
  0
SPLINE
  5
123
100
AcDbEntity
  8
Layer_1
 62
1
100
AcDbSpline
 70
8
 71
3
 72
8
 73
4
 74
0
 40
0
 40
0
 40
0
 40
0
 40
1
 40
1
 40
1
 40
1
 10
13.572016
 20
-86.893696
 30
0.0
 10
13.572016
 20
-87.165139
 30
0.0
 10
13.768662
 20
-87.383634
 30
0.0
 10
14.012961
 20
-87.383634
 30
0.0
  0
LWPOLYLINE
  5
124
100
AcDbEntity
  8
Layer_1
 62
1
100
AcDbPolyline
 90
2
 70
0
 10
13.572016
 20
24.133367
 30
0.0
 10
13.572016
 20
-86.893696
 30
0.0
  0
SPLINE
  5
125
100
AcDbEntity
  8
Layer_1
 62
1
100
AcDbSpline
 70
8
 71
3
 72
8
 73
4
 74
0
 40
0
 40
0
 40
0
 40
0
 40
1
 40
1
 40
1
 40
1
 10
21.531591
 20
-87.383634
 30
0.0
 10
21.775889
 20
-87.383634
 30
0.0
 10
21.972536
 20
-87.165139
 30
0.0
 10
21.972536
 20
-86.893696
 30
0.0
  0
LWPOLYLINE
  5
126
100
AcDbEntity
  8
Layer_1
 62
1
100
AcDbPolyline
 90
2
 70
0
 10
14.012961
 20
-87.383634
 30
0.0
 10
21.531591
 20
-87.383634
 30
0.0
  0
SPLINE
  5
127
100
AcDbEntity
  8
Layer_1
 62
1
100
AcDbSpline
 70
8
 71
3
 72
8
 73
4
 74
0
 40
0
 40
0
 40
0
 40
0
 40
1
 40
1
 40
1
 40
1
 10
21.972536
 20
24.133367
 30
0.0
 10
21.972536
 20
24.404809
 30
0.0
 10
21.775889
 20
24.623307
 30
0.0
 10
21.531591
 20
24.623307
 30
0.0
  0
LWPOLYLINE
  5
128
100
AcDbEntity
  8
Layer_1
 62
1
100
AcDbPolyline
 90
2
 70
0
 10
21.972536
 20
-86.893696
 30
0.0
 10
21.972536
 20
24.133367
 30
0.0
  0
LWPOLYLINE
  5
129
100
AcDbEntity
  8
Layer_1
 62
1
100
AcDbPolyline
 90
2
 70
0
 10
21.531591
 20
24.623307
 30
0.0
 10
14.012961
 20
24.623307
 30
0.0
  0
LWPOLYLINE
  5
12a
100
AcDbEntity
  8
Layer_1
 62
1
100
AcDbPolyline
 90
4
 70
1
 10
17.455638
 20
16.922829
 30
0.0
 10
18.293434
 20
16.922829
 30
0.0
 10
18.293434
 20
12.722569
 30
0.0
 10
17.455638
 20
12.722569
 30
0.0
  0
LWPOLYLINE
  5
12b
100
AcDbEntity
  8
Layer_1
 62
1
100
AcDbPolyline
 90
4
 70
1
 10
17.353321
 20
-75.437207
 30
0.0
 10
18.191231
 20
-75.437207
 30
0.0
 10
18.191231
 20
-79.637467
 30
0.0
 10
17.353321
 20
-79.637467
 30
0.0
  0
SPLINE
  5
12c
100
AcDbEntity
  8
Layer_1
 62
1
100
AcDbSpline
 70
8
 71
3
 72
8
 73
4
 74
0
 40
0
 40
0
 40
0
 40
0
 40
1
 40
1
 40
1
 40
1
 10
5.243798
 20
24.623306
 30
0.0
 10
4.999500
 20
24.623306
 30
0.0
 10
4.802853
 20
24.404809
 30
0.0
 10
4.802853
 20
24.133367
 30
0.0
  0
LWPOLYLINE
  5
12d
100
AcDbEntity
  8
Layer_1
 62
1
100
AcDbPolyline
 90
4
 70
1
 10
27.174214
 20
-1.370935
 30
0.0
 10
30.261020
 20
-1.370935
 30
0.0
 10
30.261020
 20
-5.571195
 30
0.0
 10
27.174214
 20
-5.571195
 30
0.0
  0
SPLINE
  5
12e
100
AcDbEntity
  8
Layer_1
 62
1
100
AcDbSpline
 70
8
 71
3
 72
8
 73
4
 74
0
 40
0
 40
0
 40
0
 40
0
 40
1
 40
1
 40
1
 40
1
 10
4.802853
 20
-86.893696
 30
0.0
 10
4.802853
 20
-87.165139
 30
0.0
 10
4.999500
 20
-87.383634
 30
0.0
 10
5.243798
 20
-87.383634
 30
0.0
  0
LWPOLYLINE
  5
12f
100
AcDbEntity
  8
Layer_1
 62
1
100
AcDbPolyline
 90
2
 70
0
 10
4.802853
 20
24.133367
 30
0.0
 10
4.802853
 20
-86.893696
 30
0.0
  0
SPLINE
  5
130
100
AcDbEntity
  8
Layer_1
 62
1
100
AcDbSpline
 70
8
 71
3
 72
8
 73
4
 74
0
 40
0
 40
0
 40
0
 40
0
 40
1
 40
1
 40
1
 40
1
 10
12.762428
 20
-87.383634
 30
0.0
 10
13.006727
 20
-87.383634
 30
0.0
 10
13.203374
 20
-87.165139
 30
0.0
 10
13.203374
 20
-86.893696
 30
0.0
  0
LWPOLYLINE
  5
131
100
AcDbEntity
  8
Layer_1
 62
1
100
AcDbPolyline
 90
2
 70
0
 10
5.243798
 20
-87.383634
 30
0.0
 10
12.762428
 20
-87.383634
 30
0.0
  0
SPLINE
  5
132
100
AcDbEntity
  8
Layer_1
 62
1
100
AcDbSpline
 70
8
 71
3
 72
8
 73
4
 74
0
 40
0
 40
0
 40
0
 40
0
 40
1
 40
1
 40
1
 40
1
 10
13.203374
 20
24.133367
 30
0.0
 10
13.203374
 20
24.404809
 30
0.0
 10
13.006727
 20
24.623306
 30
0.0
 10
12.762428
 20
24.623306
 30
0.0
  0
LWPOLYLINE
  5
133
100
AcDbEntity
  8
Layer_1
 62
1
100
AcDbPolyline
 90
2
 70
0
 10
13.203374
 20
-86.893696
 30
0.0
 10
13.203374
 20
24.133367
 30
0.0
  0
LWPOLYLINE
  5
134
100
AcDbEntity
  8
Layer_1
 62
1
100
AcDbPolyline
 90
2
 70
0
 10
12.762428
 20
24.623306
 30
0.0
 10
5.243798
 20
24.623306
 30
0.0
  0
LWPOLYLINE
  5
135
100
AcDbEntity
  8
Layer_1
 62
1
100
AcDbPolyline
 90
4
 70
1
 10
8.686476
 20
16.922829
 30
0.0
 10
9.524272
 20
16.922829
 30
0.0
 10
9.524272
 20
12.722569
 30
0.0
 10
8.686476
 20
12.722569
 30
0.0
  0
SPLINE
  5
136
100
AcDbEntity
  8
Layer_1
 62
1
100
AcDbSpline
 70
8
 71
3
 72
8
 73
4
 74
0
 40
0
 40
0
 40
0
 40
0
 40
1
 40
1
 40
1
 40
1
 10
39.530681
 20
-7.418031
 30
0.0
 10
39.530681
 20
-7.252902
 30
0.0
 10
39.339987
 20
-7.119965
 30
0.0
 10
39.103068
 20
-7.119965
 30
0.0
  0
LWPOLYLINE
  5
137
100
AcDbEntity
  8
Layer_1
 62
1
100
AcDbPolyline
 90
4
 70
1
 10
8.584159
 20
-75.437207
 30
0.0
 10
9.422069
 20
-75.437207
 30
0.0
 10
9.422069
 20
-79.637467
 30
0.0
 10
8.584159
 20
-79.637467
 30
0.0
  0
SPLINE
  5
138
100
AcDbEntity
  8
Layer_1
 62
1
100
AcDbSpline
 70
8
 71
3
 72
8
 73
4
 74
0
 40
0
 40
0
 40
0
 40
0
 40
1
 40
1
 40
1
 40
1
 10
31.558686
 20
-7.119965
 30
0.0
 10
31.321770
 20
-7.119965
 30
0.0
 10
31.130959
 20
-7.252902
 30
0.0
 10
31.130959
 20
-7.418031
 30
0.0
  0
LWPOLYLINE
  5
139
100
AcDbEntity
  8
Layer_1
 62
1
100
AcDbPolyline
 90
2
 70
0
 10
39.103068
 20
-7.119965
 30
0.0
 10
31.558686
 20
-7.119965
 30
0.0
  0
SPLINE
  5
13a
100
AcDbEntity
  8
Layer_1
 62
1
100
AcDbSpline
 70
8
 71
3
 72
8
 73
4
 74
0
 40
0
 40
0
 40
0
 40
0
 40
1
 40
1
 40
1
 40
1
 10
31.130959
 20
-13.833500
 30
0.0
 10
31.130959
 20
-13.875267
 30
0.0
 10
31.143196
 20
-13.914954
 30
0.0
 10
31.165255
 20
-13.950973
 30
0.0
  0
SPLINE
  5
13b
100
AcDbEntity
  8
Layer_1
 62
1
100
AcDbSpline
 70
8
 71
3
 72
8
 73
4
 74
0
 40
0
 40
0
 40
0
 40
0
 40
1
 40
1
 40
1
 40
1
 10
31.165255
 20
-13.950973
 30
0.0
 10
31.140812
 20
-14.005874
 30
0.0
 10
31.126970
 20
-14.066587
 30
0.0
 10
31.126970
 20
-14.130768
 30
0.0
  0
LWPOLYLINE
  5
13c
100
AcDbEntity
  8
Layer_1
 62
1
100
AcDbPolyline
 90
2
 70
0
 10
31.130959
 20
-7.418031
 30
0.0
 10
31.130959
 20
-13.833500
 30
0.0
  0
SPLINE
  5
13d
100
AcDbEntity
  8
Layer_1
 62
1
100
AcDbSpline
 70
8
 71
3
 72
8
 73
4
 74
0
 40
0
 40
0
 40
0
 40
0
 40
1
 40
1
 40
1
 40
1
 10
31.126970
 20
-80.453041
 30
0.0
 10
31.126970
 20
-80.494693
 30
0.0
 10
31.133034
 20
-80.534764
 30
0.0
 10
31.143727
 20
-80.572906
 30
0.0
  0
SPLINE
  5
13e
100
AcDbEntity
  8
Layer_1
 62
1
100
AcDbSpline
 70
8
 71
3
 72
8
 73
4
 74
0
 40
0
 40
0
 40
0
 40
0
 40
1
 40
1
 40
1
 40
1
 10
31.143727
 20
-80.572906
 30
0.0
 10
31.128734
 20
-80.603369
 30
0.0
 10
31.120256
 20
-80.636003
 30
0.0
 10
31.120256
 20
-80.670094
 30
0.0
  0
LWPOLYLINE
  5
13f
100
AcDbEntity
  8
Layer_1
 62
1
100
AcDbPolyline
 90
2
 70
0
 10
31.126970
 20
-14.130768
 30
0.0
 10
31.126970
 20
-80.453041
 30
0.0
  0
SPLINE
  5
140
100
AcDbEntity
  8
Layer_1
 62
1
100
AcDbSpline
 70
8
 71
3
 72
8
 73
4
 74
0
 40
0
 40
0
 40
0
 40
0
 40
1
 40
1
 40
1
 40
1
 10
31.120256
 20
-87.085568
 30
0.0
 10
31.120256
 20
-87.250696
 30
0.0
 10
31.311065
 20
-87.383634
 30
0.0
 10
31.547984
 20
-87.383634
 30
0.0
  0
LWPOLYLINE
  5
141
100
AcDbEntity
  8
Layer_1
 62
1
100
AcDbPolyline
 90
2
 70
0
 10
31.120256
 20
-80.670094
 30
0.0
 10
31.120256
 20
-87.085568
 30
0.0
  0
SPLINE
  5
142
100
AcDbEntity
  8
Layer_1
 62
1
100
AcDbSpline
 70
8
 71
3
 72
8
 73
4
 74
0
 40
0
 40
0
 40
0
 40
0
 40
1
 40
1
 40
1
 40
1
 10
39.092364
 20
-87.383634
 30
0.0
 10
39.329283
 20
-87.383634
 30
0.0
 10
39.519979
 20
-87.250696
 30
0.0
 10
39.519979
 20
-87.085568
 30
0.0
  0
LWPOLYLINE
  5
143
100
AcDbEntity
  8
Layer_1
 62
1
100
AcDbPolyline
 90
2
 70
0
 10
31.547984
 20
-87.383634
 30
0.0
 10
39.092364
 20
-87.383634
 30
0.0
  0
SPLINE
  5
144
100
AcDbEntity
  8
Layer_1
 62
1
100
AcDbSpline
 70
8
 71
3
 72
8
 73
4
 74
0
 40
0
 40
0
 40
0
 40
0
 40
1
 40
1
 40
1
 40
1
 10
39.519979
 20
-80.670094
 30
0.0
 10
39.519979
 20
-80.643155
 30
0.0
 10
39.514467
 20
-80.617184
 30
0.0
 10
39.504942
 20
-80.592391
 30
0.0
  0
SPLINE
  5
145
100
AcDbEntity
  8
Layer_1
 62
1
100
AcDbSpline
 70
8
 71
3
 72
8
 73
4
 74
0
 40
0
 40
0
 40
0
 40
0
 40
1
 40
1
 40
1
 40
1
 10
39.504942
 20
-80.592391
 30
0.0
 10
39.519450
 20
-80.548580
 30
0.0
 10
39.527502
 20
-80.501846
 30
0.0
 10
39.527502
 20
-80.453041
 30
0.0
  0
LWPOLYLINE
  5
146
100
AcDbEntity
  8
Layer_1
 62
1
100
AcDbPolyline
 90
2
 70
0
 10
39.519979
 20
-87.085568
 30
0.0
 10
39.519979
 20
-80.670094
 30
0.0
  0
SPLINE
  5
147
100
AcDbEntity
  8
Layer_1
 62
1
100
AcDbSpline
 70
8
 71
3
 72
8
 73
4
 74
0
 40
0
 40
0
 40
0
 40
0
 40
1
 40
1
 40
1
 40
1
 10
39.527502
 20
-14.130768
 30
0.0
 10
39.527502
 20
-14.068984
 30
0.0
 10
39.514934
 20
-14.010288
 30
0.0
 10
39.492182
 20
-13.957012
 30
0.0
  0
SPLINE
  5
148
100
AcDbEntity
  8
Layer_1
 62
1
100
AcDbSpline
 70
8
 71
3
 72
8
 73
4
 74
0
 40
0
 40
0
 40
0
 40
0
 40
1
 40
1
 40
1
 40
1
 10
39.492182
 20
-13.957012
 30
0.0
 10
39.516703
 20
-13.919379
 30
0.0
 10
39.530692
 20
-13.877663
 30
0.0
 10
39.530692
 20
-13.833500
 30
0.0
  0
LWPOLYLINE
  5
149
100
AcDbEntity
  8
Layer_1
 62
1
100
AcDbPolyline
 90
2
 70
0
 10
39.527502
 20
-80.453041
 30
0.0
 10
39.527502
 20
-14.130768
 30
0.0
  0
LWPOLYLINE
  5
14a
100
AcDbEntity
  8
Layer_1
 62
1
100
AcDbPolyline
 90
2
 70
0
 10
39.530692
 20
-13.833500
 30
0.0
 10
39.530681
 20
-7.418031
 30
0.0
  0
LWPOLYLINE
  5
14b
100
AcDbEntity
  8
Layer_1
 62
1
100
AcDbPolyline
 90
4
 70
1
 10
37.438072
 20
-17.449137
 30
0.0
 10
37.438072
 20
-18.331029
 30
0.0
 10
33.237812
 20
-18.331029
 30
0.0
 10
33.237812
 20
-17.449137
 30
0.0
  0
LWPOLYLINE
  5
14c
100
AcDbEntity
  8
Layer_1
 62
1
100
AcDbPolyline
 90
4
 70
1
 10
37.438072
 20
-19.450939
 30
0.0
 10
37.438072
 20
-20.332943
 30
0.0
 10
33.237812
 20
-20.332943
 30
0.0
 10
33.237812
 20
-19.450939
 30
0.0
  0
LWPOLYLINE
  5
14d
100
AcDbEntity
  8
Layer_1
 62
1
100
AcDbPolyline
 90
4
 70
1
 10
37.438072
 20
-21.452739
 30
0.0
 10
37.438072
 20
-22.334743
 30
0.0
 10
33.237812
 20
-22.334743
 30
0.0
 10
33.237812
 20
-21.452739
 30
0.0
  0
LWPOLYLINE
  5
14e
100
AcDbEntity
  8
Layer_1
 62
1
100
AcDbPolyline
 90
4
 70
1
 10
37.438072
 20
-23.454654
 30
0.0
 10
37.438072
 20
-24.336543
 30
0.0
 10
33.237812
 20
-24.336543
 30
0.0
 10
33.237812
 20
-23.454654
 30
0.0
  0
LWPOLYLINE
  5
14f
100
AcDbEntity
  8
Layer_1
 62
1
100
AcDbPolyline
 90
4
 70
1
 10
37.438072
 20
-25.456454
 30
0.0
 10
37.438072
 20
-26.338346
 30
0.0
 10
33.237812
 20
-26.338346
 30
0.0
 10
33.237812
 20
-25.456454
 30
0.0
  0
LWPOLYLINE
  5
150
100
AcDbEntity
  8
Layer_1
 62
1
100
AcDbPolyline
 90
4
 70
1
 10
37.438072
 20
-27.458254
 30
0.0
 10
37.438072
 20
-28.340258
 30
0.0
 10
33.237812
 20
-28.340258
 30
0.0
 10
33.237812
 20
-27.458254
 30
0.0
  0
LWPOLYLINE
  5
151
100
AcDbEntity
  8
Layer_1
 62
1
100
AcDbPolyline
 90
4
 70
1
 10
37.438072
 20
-29.460169
 30
0.0
 10
37.438072
 20
-30.342060
 30
0.0
 10
33.237812
 20
-30.342060
 30
0.0
 10
33.237812
 20
-29.460169
 30
0.0
  0
LWPOLYLINE
  5
152
100
AcDbEntity
  8
Layer_1
 62
1
100
AcDbPolyline
 90
4
 70
1
 10
37.381672
 20
-64.241751
 30
0.0
 10
37.381672
 20
-65.123643
 30
0.0
 10
33.181411
 20
-65.123643
 30
0.0
 10
33.181411
 20
-64.241751
 30
0.0
  0
LWPOLYLINE
  5
153
100
AcDbEntity
  8
Layer_1
 62
1
100
AcDbPolyline
 90
4
 70
1
 10
37.381672
 20
-66.243554
 30
0.0
 10
37.381672
 20
-67.125555
 30
0.0
 10
33.181411
 20
-67.125555
 30
0.0
 10
33.181411
 20
-66.243554
 30
0.0
  0
LWPOLYLINE
  5
154
100
AcDbEntity
  8
Layer_1
 62
1
100
AcDbPolyline
 90
4
 70
1
 10
37.381672
 20
-68.245468
 30
0.0
 10
37.381672
 20
-69.127360
 30
0.0
 10
33.181411
 20
-69.127360
 30
0.0
 10
33.181411
 20
-68.245468
 30
0.0
  0
LWPOLYLINE
  5
155
100
AcDbEntity
  8
Layer_1
 62
1
100
AcDbPolyline
 90
4
 70
1
 10
37.381672
 20
-70.247266
 30
0.0
 10
37.381672
 20
-71.129158
 30
0.0
 10
33.181411
 20
-71.129158
 30
0.0
 10
33.181411
 20
-70.247266
 30
0.0
  0
LWPOLYLINE
  5
156
100
AcDbEntity
  8
Layer_1
 62
1
100
AcDbPolyline
 90
4
 70
1
 10
37.381672
 20
-72.249068
 30
0.0
 10
37.381672
 20
-73.131072
 30
0.0
 10
33.181411
 20
-73.131072
 30
0.0
 10
33.181411
 20
-72.249068
 30
0.0
  0
LWPOLYLINE
  5
157
100
AcDbEntity
  8
Layer_1
 62
1
100
AcDbPolyline
 90
4
 70
1
 10
37.381672
 20
-74.250866
 30
0.0
 10
37.381672
 20
-75.132874
 30
0.0
 10
33.181411
 20
-75.132874
 30
0.0
 10
33.181411
 20
-74.250866
 30
0.0
  0
LWPOLYLINE
  5
158
100
AcDbEntity
  8
Layer_1
 62
1
100
AcDbPolyline
 90
4
 70
1
 10
37.381672
 20
-76.252781
 30
0.0
 10
37.381672
 20
-77.134672
 30
0.0
 10
33.181411
 20
-77.134672
 30
0.0
 10
33.181411
 20
-76.252781
 30
0.0
  0
LWPOLYLINE
  5
159
100
AcDbEntity
  8
Layer_1
 62
1
100
AcDbPolyline
 90
4
 70
1
 10
22.831070
 20
-1.370935
 30
0.0
 10
25.917876
 20
-1.370935
 30
0.0
 10
25.917876
 20
-5.571195
 30
0.0
 10
22.831070
 20
-5.571195
 30
0.0
  0
LWPOLYLINE
  5
15a
100
AcDbEntity
  8
Layer_1
 62
1
100
AcDbPolyline
 90
4
 70
1
 10
35.860516
 20
-1.370935
 30
0.0
 10
38.947322
 20
-1.370935
 30
0.0
 10
38.947322
 20
-5.571195
 30
0.0
 10
35.860516
 20
-5.571195
 30
0.0
  0
LWPOLYLINE
  5
15b
100
AcDbEntity
  8
Layer_1
 62
1
100
AcDbPolyline
 90
4
 70
1
 10
31.517365
 20
-1.370935
 30
0.0
 10
34.604171
 20
-1.370935
 30
0.0
 10
34.604171
 20
-5.571195
 30
0.0
 10
31.517365
 20
-5.571195
 30
0.0
  0
ENDSEC
  0
SECTION
  2
OBJECTS
  0
DICTIONARY
  5
C
330
0
100
AcDbDictionary
  3
ACAD_GROUP
350
D
  3
ACAD_MLINESTYLE
350
17
  0
DICTIONARY
  5
D
330
C
100
AcDbDictionary
  0
DICTIONARY
  5
1A
330
C
100
AcDbDictionary
  0
DICTIONARY
  5
17
330
C
100
AcDbDictionary
  3
STANDARD
350
18
  0
DICTIONARY
  5
19
330
C
100
AcDbDictionary
  0
ENDSEC
  0
EOF
